<?xml version="1.0" encoding="UTF-8"?>
<svg width="184px" height="57px" viewBox="0 0 184 57" version="1.1" xmlns="http://www.w3.org/2000/svg" xmlns:xlink="http://www.w3.org/1999/xlink">
    <!-- Generator: Sketch 51.3 (57544) - http://www.bohemiancoding.com/sketch -->
    <title>Brand/Wordmarklogo-sagerx</title>
    <desc>Created with Sketch.</desc>
    <defs></defs>
    <g id="Symbols" stroke="none" stroke-width="1" fill="none" fill-rule="evenodd">
        <g id="Website/Menu/Interior" transform="translate(-48.000000, -28.000000)">
            <g id="Brand/Wordmark">
                <g transform="translate(48.000000, 28.000000)">
                    <g id="⚙️/Dark">
                        <g id="Sage_Logo_PMS">
                            <path d="M8.3263051,23.3995234 C8.28654902,19.5027443 9.79771204,15.5942369 12.8649797,12.6214925 C18.9200029,6.75181993 28.7380251,6.75223881 34.7934805,12.6214925 C40.8493679,18.491584 40.8489358,28.0079682 34.7939126,33.877222 C31.6868888,36.8889215 27.5898524,38.3516273 23.5187438,38.273298 C22.2880339,38.3801107 19.8119218,38.7336399 16.8898503,39.9081608 C14.3536719,40.9276986 12.7487364,41.9447232 11.4393787,43.0107559 C20.6217358,48.4427058 32.7715383,47.3138421 40.7136787,39.6145306 C50.0291323,30.5861338 50.0291323,15.9473471 40.7136787,6.91895041 C31.3999537,-2.11028406 16.2973983,-2.11028406 6.98324115,6.91895041 C-0.940749751,14.5994126 -2.11960383,26.338339 3.43890056,35.2314396 C4.5343533,33.9647665 5.57924669,32.4107463 6.62759712,29.9607559 C7.88855613,27.0139817 8.23210049,24.5376023 8.3263051,23.3995234" id="Fill-1" fill="#C9C9C8"></path>
                            <path d="M56.968296,40.2403274 C56.1554571,39.8960135 56.0029148,39.6497159 56.0029148,38.5660905 C56.0029148,35.8555609 56.2060165,32.8991526 56.257008,32.1108329 C56.3075673,31.3715214 56.4609739,30.8294993 56.8667452,30.8294993 C57.3252364,30.8294993 57.3757958,31.2730862 57.3757958,31.667246 C57.3757958,32.3081223 57.5793296,33.3427395 57.8329907,34.1809052 C58.9513464,37.8263601 61.9507694,39.1571208 65.1027348,39.1571208 C69.6772763,39.1571208 71.9144199,36.1508666 71.9144199,33.53961 C71.9144199,31.1256428 71.1517082,28.8587 66.9323786,25.6559942 L64.5941163,23.8820655 C59.00277,19.6443235 57.070279,16.1953202 57.070279,12.2038758 C57.070279,6.78365431 61.7472356,2.89064516 68.813446,2.89064516 C72.1170894,2.89064516 74.2526821,3.38365912 75.5741395,3.72839191 C76.0317665,3.82724603 76.2858597,3.97468946 76.2858597,4.31984112 C76.2858597,4.96071738 76.0823259,6.38949446 76.0823259,10.2330766 C76.0823259,11.3171208 75.9297835,11.7112807 75.523148,11.7112807 C75.1670719,11.7112807 75.0145295,11.4155561 75.0145295,10.8245258 C75.0145295,10.38052 74.7604363,8.85330766 73.6935043,7.571974 C72.9307926,6.63621088 71.4563607,5.15758787 68.1522851,5.15758787 C64.3901504,5.15758787 62.1028796,7.27666827 62.1028796,10.2330766 C62.1028796,12.4996004 63.2722268,14.2241021 67.4919886,17.3283727 L68.9149968,18.3634088 C75.065521,22.8474482 77.2516731,26.2474434 77.2516731,30.9283534 C77.2516731,33.7867453 76.1328852,37.1867405 72.4731656,39.5018536 C69.9318017,41.0789119 67.0844888,41.521661 64.3901504,41.521661 C61.4421509,41.521661 59.1540159,41.1773471 56.968296,40.2403274" id="Fill-3" fill="#EB902D"></path>
                            <path d="M99.8201602,27.9715262 C100.023694,27.9715262 100.074253,27.8735099 100.023694,27.7252287 L95.8043644,17.0820751 C95.753805,16.9342128 95.7032457,16.6879153 95.6008306,16.6879153 C95.4482882,16.6879153 95.3977289,16.9342128 95.3471695,17.0820751 L91.0258569,27.6762205 C90.923874,27.8735099 91.0258569,27.9715262 91.1783993,27.9715262 L99.8201602,27.9715262 Z M90.2627131,30.287896 C90.0094842,30.287896 89.9584927,30.3373231 89.8565097,30.5836206 L87.4676881,36.2007126 C87.0100611,37.2357487 86.8069595,38.2707848 86.8069595,38.762961 C86.8069595,39.5018536 87.213595,39.9450217 88.5856117,39.9450217 L89.2467725,39.9450217 C89.8059504,39.9450217 89.9070691,40.142311 89.9070691,40.3886086 C89.9070691,40.7337602 89.6529759,40.8317766 89.1962132,40.8317766 C87.7213492,40.8317766 85.6371801,40.684752 84.2133076,40.684752 C83.7561128,40.684752 81.3672912,40.8317766 79.0285968,40.8317766 C78.4689868,40.8317766 78.21619,40.7337602 78.21619,40.3886086 C78.21619,40.142311 78.3678681,39.9450217 78.7239443,39.9450217 C79.1305798,39.9450217 79.6391983,39.8960135 80.0458338,39.8960135 C82.0790113,39.6007078 82.8421551,38.319793 83.7561128,36.2007126 L95.4482882,9.83849783 C95.9573389,8.6560183 96.3125508,8.16342321 96.7701778,8.16342321 C97.4309065,8.16342321 97.6344403,8.55800193 98.0916352,9.49376505 C99.1594315,11.8097159 106.632277,28.9575542 109.479158,35.3139576 C111.206819,39.1072749 112.477717,39.6497159 113.29142,39.7979971 C113.952149,39.8960135 114.460335,39.9450217 114.968521,39.9450217 C115.376021,39.9450217 115.579555,40.0933028 115.579555,40.3886086 C115.579555,40.7337602 115.324598,40.8317766 113.646632,40.8317766 C112.071081,40.8317766 108.817997,40.8317766 105.05543,40.7337602 C104.243024,40.684752 103.733973,40.684752 103.733973,40.3886086 C103.733973,40.142311 103.835956,39.9940299 104.293583,39.9450217 C104.598236,39.8960135 104.903752,39.5018536 104.700218,39.0092585 L101.244033,30.5836206 C101.14205,30.3373231 100.989075,30.287896 100.785974,30.287896 L90.2627131,30.287896 Z" id="Fill-4" fill="#EB902D"></path>
                            <path d="M147.755616,38.0236495 C147.755616,39.1571208 147.755616,39.2065479 147.195142,39.5018536 C144.196583,40.9310496 139.77372,41.3742176 136.266111,41.3742176 C125.28652,41.3742176 115.576098,36.5454454 115.576098,24.9661098 C115.576098,18.2645546 119.287241,13.5836447 123.40502,11.2676938 C127.674909,8.85330766 131.691569,8.55800193 135.453272,8.55800193 C138.554246,8.55800193 142.468058,9.05017814 143.383745,9.2474675 C144.297702,9.3953298 145.873253,9.64162735 146.941049,9.69105441 C147.4501,9.74006259 147.551218,9.88792489 147.551218,10.1836495 C147.551218,10.6762446 147.246566,11.8097159 147.246566,17.0820751 C147.246566,17.7225325 146.992473,18.018676 146.636397,18.018676 C146.331744,18.018676 146.229761,17.8209677 146.17877,17.4766538 C146.076787,16.540053 145.823558,15.2092922 144.653778,14.0272316 C143.332321,12.6964709 139.977254,10.8245258 134.944221,10.8245258 C132.504408,10.8245258 129.403434,10.8735339 126.30246,13.2879201 C123.812088,15.2591382 122.185546,18.3634088 122.185546,23.4879056 C122.185546,32.5049928 128.18396,39.0582667 137.740542,39.0582667 C138.909457,39.0582667 139.825144,39.0582667 140.892076,38.6150987 C141.552804,38.319793 141.756338,37.8762061 141.756338,37.1368946 L141.756338,33.2933125 C141.756338,31.224078 141.756338,29.6470197 141.705779,28.3656861 C141.65522,26.9373279 141.197593,26.493741 139.77372,26.0995811 C139.418508,26.0011459 138.655364,25.9517188 138.045195,25.9517188 C137.639424,25.9517188 137.333907,25.7544295 137.333907,25.507713 C137.333907,25.1629803 137.689983,25.1139721 138.300152,25.1139721 C140.637983,25.1139721 143.840939,25.2119884 145.161965,25.2119884 C146.585837,25.2119884 148.923667,25.1139721 150.398099,25.1139721 C151.008268,25.1139721 151.313785,25.1629803 151.313785,25.507713 C151.313785,25.7544295 151.058828,25.9517188 150.754175,25.9517188 C150.398099,25.9517188 150.042023,26.0011459 149.533837,26.0995811 C148.313498,26.2964516 147.855871,26.8879008 147.806176,28.3656861 C147.755616,29.6470197 147.755616,31.3225132 147.755616,33.3921666 L147.755616,38.0236495" id="Fill-5" fill="#EB902D"></path>
                            <path d="M160.258038,21.27039 C160.258038,14.9139865 160.258038,13.731507 160.207047,12.4011651 C160.105064,10.9719692 159.698428,10.5288012 158.27542,10.1342224 C157.919776,10.0362061 157.157064,9.98636013 156.495903,9.98636013 C156.038708,9.98636013 155.733192,9.83849783 155.733192,9.5431921 C155.733192,9.2474675 156.089268,9.14903226 156.750861,9.14903226 C159.088691,9.14903226 161.935572,9.2474675 163.206038,9.2474675 C164.62991,9.2474675 174.541705,9.29689456 175.406831,9.2474675 C176.21967,9.19804044 176.931823,9.05017814 177.287467,9.00075108 C177.54156,8.9517429 177.796085,8.8038806 177.999619,8.8038806 C178.253712,8.8038806 178.303407,9.00075108 178.303407,9.19804044 C178.303407,9.49376505 178.050178,9.98636013 177.948195,11.9081512 C177.897636,12.3517381 177.796085,14.1750939 177.694102,14.667689 C177.643543,14.8649783 177.54156,15.3575734 177.185916,15.3575734 C176.880399,15.3575734 176.82984,15.1602841 176.82984,14.8155513 C176.82984,14.5198267 176.77928,13.7805152 176.525187,13.2879201 C176.169111,12.5490274 175.813899,11.9575782 173.576323,11.7602889 C172.814044,11.6618536 167.476791,11.5629995 166.561537,11.5629995 C166.358435,11.5629995 166.25602,11.7112807 166.25602,11.9575782 L166.25602,22.3050072 C166.25602,22.5517236 166.307876,22.749013 166.561537,22.749013 C167.577909,22.749013 173.37279,22.749013 174.390027,22.6501589 C175.457391,22.5517236 176.118552,22.4528695 176.525187,22.0092826 C176.880399,21.7139769 177.033374,21.4676793 177.236907,21.4676793 C177.440009,21.4676793 177.592984,21.6645498 177.592984,21.9112662 C177.592984,22.1575638 177.490568,22.8474482 177.236907,24.9661098 C177.135357,25.8034377 177.033374,27.4789312 177.033374,27.7750746 C177.033374,28.1198074 176.98195,28.7112566 176.575747,28.7112566 C176.271094,28.7112566 176.169111,28.5629754 176.169111,28.3656861 C176.118552,27.9220992 176.118552,27.3804959 176.017001,26.8384738 C175.762043,26.0011459 175.203298,25.3602696 173.525764,25.2119884 C172.712061,25.1139721 167.628469,25.0155368 166.510113,25.0155368 C166.307876,25.0155368 166.25602,25.2119884 166.25602,25.4587049 L166.25602,28.809273 C166.25602,30.2380501 166.205461,33.7867453 166.25602,35.0178142 C166.358435,37.8762061 167.730884,38.5170823 172.305858,38.5170823 C173.474773,38.5170823 175.355408,38.4668175 176.525187,37.9746413 C177.643543,37.4820462 178.151729,36.5944535 178.457246,34.8699519 C178.558365,34.4272027 178.659916,34.2290756 178.964568,34.2290756 C179.320644,34.2290756 179.372068,34.7715166 179.372068,35.2151035 C179.372068,36.1508666 179.015992,39.0092585 178.761899,39.8470053 C178.457246,40.9310496 178.050178,40.9310496 176.372645,40.9310496 C173.016714,40.9310496 170.323671,40.8820414 168.137519,40.7827684 C165.951367,40.7337602 164.273834,40.684752 162.951944,40.684752 C162.443758,40.684752 161.478377,40.7337602 160.41058,40.7337602 C159.342784,40.7827684 158.224428,40.8317766 157.309606,40.8317766 C156.750861,40.8317766 156.445344,40.684752 156.445344,40.3886086 C156.445344,40.192157 156.598318,39.9450217 157.157064,39.9450217 C157.817793,39.9450217 158.326843,39.8960135 158.733479,39.7979971 C159.647437,39.6007078 159.90153,38.8123881 160.054504,37.5800626 C160.258038,35.8065527 160.258038,32.5049928 160.258038,28.6618296 L160.258038,21.27039" id="Fill-6" fill="#EB902D"></path>
                            <polyline id="Fill-7" fill="#767575" points="59.0809857 55.9958305 58.1631389 55.9958305 58.1631389 49.0224266 55.467072 49.0224266 55.467072 48.21065 61.7774848 48.21065 61.7774848 49.0224266 59.0809857 49.0224266 59.0809857 55.9958305"></polyline>
                            <polyline id="Fill-8" fill="#767575" points="72.9061611 55.9958305 71.9999819 55.9958305 71.9999819 52.4923736 67.3645098 52.4923736 67.3645098 55.9958305 66.4587627 55.9958305 66.4587627 48.21065 67.3645098 48.21065 67.3645098 51.6692874 71.9999819 51.6692874 71.9999819 48.21065 72.9061611 48.21065 72.9061611 55.9958305"></polyline>
                            <polyline id="Fill-9" fill="#767575" points="84.023602 55.9958305 78.1613094 55.9958305 78.1613094 48.21065 83.9661286 48.21065 83.9661286 49.0115359 79.0670565 49.0115359 79.0670565 51.6692874 83.4501638 51.6692874 83.4501638 52.4701733 79.0670565 52.4701733 79.0670565 55.1945258 84.023602 55.1945258 84.023602 55.9958305"></polyline>
                            <path d="M95.473784,55.9958305 L94.361046,55.9958305 L92.0318585,52.9703081 L89.7372415,52.9703081 L89.7372415,55.9958305 L88.8310623,55.9958305 L88.8310623,48.21065 L92.2842232,48.21065 C93.2707788,48.21065 94.0624433,48.4996726 94.5671726,48.9893356 C94.9573871,49.3671594 95.1868488,49.9121136 95.1868488,50.5236688 L95.1868488,50.5462879 C95.1868488,51.8364179 94.269002,52.5924844 93.0071788,52.8149061 L95.473784,55.9958305 M89.7372415,49.0224266 L89.7372415,52.1807318 L92.2042789,52.1807318 C93.4086287,52.1807318 94.269002,51.5804863 94.269002,50.5793789 L94.269002,50.5571786 C94.269002,49.6004718 93.5119081,49.0224266 92.2155143,49.0224266 L89.7372415,49.0224266" id="Fill-10" fill="#767575"></path>
                            <path d="M107.589448,55.9958305 L106.614128,55.9958305 L105.672946,53.9379056 L101.301938,53.9379056 L100.349953,55.9958305 L99.4200066,55.9958305 L103.080158,48.1549398 L103.929296,48.1549398 L107.589448,55.9958305 M103.493276,49.1782475 L101.657582,53.1487482 L105.317734,53.1487482 L103.493276,49.1782475" id="Fill-11" fill="#767575"></path>
                            <path d="M113.061526,55.9958305 L112.155347,55.9958305 L112.155347,48.21065 L115.161252,48.21065 C116.973611,48.21065 118.167157,49.1447376 118.167157,50.6794896 L118.167157,50.7016899 C118.167157,52.3813722 116.721678,53.2484401 115.011735,53.2484401 L113.061526,53.2484401 L113.061526,55.9958305 M113.061526,49.0224266 L113.061526,52.4475542 L115.046305,52.4475542 C116.377702,52.4475542 117.24931,51.7580886 117.24931,50.7351998 L117.24931,50.7129995 C117.24931,49.6004718 116.388937,49.0224266 115.092543,49.0224266 L113.061526,49.0224266" id="Fill-12" fill="#767575"></path>
                            <polyline id="Fill-13" fill="#767575" points="128.664922 55.9958305 122.802629 55.9958305 122.802629 48.21065 128.607448 48.21065 128.607448 49.0115359 123.708376 49.0115359 123.708376 51.6692874 128.091484 51.6692874 128.091484 52.4701733 123.708376 52.4701733 123.708376 55.1945258 128.664922 55.1945258 128.664922 55.9958305"></polyline>
                            <path d="M136.684846,56.1177227 C134.700067,56.1177227 133.3462,54.9385941 133.3462,52.7369957 L133.3462,48.21065 L134.252379,48.21065 L134.252379,52.6812855 C134.252379,54.3605489 135.170226,55.3059461 136.707317,55.3059461 C138.187798,55.3059461 139.128548,54.4384593 139.128548,52.7369957 L139.128548,48.21065 L140.035159,48.21065 L140.035159,52.6699759 C140.035159,54.9385941 138.692528,56.1177227 136.684846,56.1177227" id="Fill-14" fill="#767575"></path>
                            <polyline id="Fill-15" fill="#767575" points="148.203737 55.9958305 147.28589 55.9958305 147.28589 49.0224266 144.589823 49.0224266 144.589823 48.21065 150.899804 48.21065 150.899804 49.0224266 148.203737 49.0224266 148.203737 55.9958305"></polyline>
                            <polygon id="Fill-16" fill="#767575" points="155.661458 55.9958305 156.527247 55.9958305 156.527247 48.21065 155.661458 48.21065"></polygon>
                            <path d="M165.573685,56.1290323 C163.256165,56.1290323 161.546653,54.3605489 161.546653,52.1250217 L161.546653,52.1032403 C161.546653,49.9012229 163.244497,48.0770294 165.607823,48.0770294 C167.06497,48.0770294 167.937011,48.5780019 168.73991,49.3118681 L168.120666,49.9565142 C167.443517,49.3336495 166.686855,48.888806 165.596588,48.888806 C163.818368,48.888806 162.487403,50.2903563 162.487403,52.08104 L162.487403,52.1032403 C162.487403,53.9043958 163.829603,55.3172557 165.596588,55.3172557 C166.69809,55.3172557 167.421046,54.9055031 168.189375,54.1938373 L168.786148,54.7609918 C167.948246,55.584078 167.030399,56.1290323 165.573685,56.1290323" id="Fill-17" fill="#767575"></path>
                            <path d="M176.10602,56.106832 C174.832529,56.106832 173.7885,55.6954983 172.824847,54.8611026 L173.386618,54.2164564 C174.22452,54.9499037 175.02742,55.3172557 176.140158,55.3172557 C177.21919,55.3172557 177.930046,54.7609918 177.930046,53.9936158 L177.930046,53.9718344 C177.930046,53.2484401 177.528596,52.8371064 175.841988,52.4923736 C173.995059,52.1032403 173.145921,51.5247761 173.145921,50.2459557 L173.145921,50.2233365 C173.145921,48.9998074 174.258659,48.0992297 175.784514,48.0992297 C176.954726,48.0992297 177.792628,48.422181 178.606763,49.0555176 L178.079563,49.7340924 C177.333705,49.1447376 176.587846,48.888806 175.761611,48.888806 C174.717582,48.888806 174.0521,49.4450698 174.0521,50.145845 L174.0521,50.1676264 C174.0521,50.9019114 174.465217,51.3136639 176.232202,51.680597 C178.02209,52.0584208 178.847893,52.6925951 178.847893,53.8826143 L178.847893,53.9043958 C178.847893,55.2393452 177.701016,56.106832 176.10602,56.106832" id="Fill-18" fill="#767575"></path>
                            <path d="M29.08978,28.3573086 C26.1910435,31.1675301 21.4898875,31.1671112 18.591151,28.3568897 C15.6919824,25.5470871 15.6928467,20.9910014 18.591151,18.1811988 C21.4911839,15.3705585 26.1910435,15.3701396 29.08978,18.1803611 C31.9885165,20.9905826 31.9893807,25.5470871 29.08978,28.3573086" id="Fill-19" fill="#37B6C7"></path>
                            <path d="M181.845587,54.2059846 L182.089309,54.2059846 L182.659723,55.0550409 L183.224086,54.2059846 L183.462622,54.2059846 L183.462622,55.7533028 L183.240075,55.7533028 L183.240075,54.5674723 L182.669662,55.4064757 L182.63898,55.4064757 L182.073753,54.5674723 L182.073753,55.7533028 L181.845587,55.7533028 L181.845587,54.2059846 Z M180.752295,54.4170968 L180.238923,54.4170968 L180.238923,54.2059846 L181.4934,54.2059846 L181.4934,54.4170968 L180.98046,54.4170968 L180.98046,55.7533028 L180.752295,55.7533028 L180.752295,54.4170968 Z" id="Fill-20" fill="#797978"></path>
                        </g>
                    </g>
                </g>
            </g>
        </g>
    </g>
</svg>